<?xml version="1.0" encoding="UTF-8"?>
<svg version="1.1" xmlns="http://www.w3.org/2000/svg" width="2000" height="2000">
<path d="M0 0 C2.17940806 0.26808871 4.36018744 0.52171647 6.54156494 0.77325439 C70.69115573 8.2393565 133.79332923 24.47831654 193.05865479 50.25323486 C194.00692139 50.66235107 194.95518799 51.07146729 195.93218994 51.49298096 C201.68575393 53.98700602 207.3800556 56.59365165 213.05865479 59.25323486 C214.48903076 59.91524902 214.48903076 59.91524902 215.94830322 60.59063721 C230.53423566 67.35489236 244.61594176 74.72525442 258.52105713 82.79278564 C261.48768217 84.50015057 264.48179132 86.15289479 267.48126221 87.80157471 C275.9621388 92.47841174 284.08095005 97.6474195 292.15435791 102.99249268 C293.83223877 104.10333585 295.51536073 105.20625392 297.19927979 106.30792236 C326.55650544 125.63877314 354.10687804 147.5651645 380.05865479 171.25323486 C381.39283447 172.4481958 381.39283447 172.4481958 382.75396729 173.66729736 C390.37698178 180.54470686 397.66689043 187.75385202 404.93365479 195.00323486 C405.68079239 195.74649017 405.68079239 195.74649017 406.44302368 196.50476074 C411.65271265 201.69309545 416.77090839 206.91877921 421.55621338 212.50567627 C423.77970974 215.09192699 426.10898869 217.57003478 428.43365479 220.06573486 C432.6717618 224.65882862 436.71465671 229.36593708 440.63287354 234.23760986 C442.41225344 236.44965702 444.20496031 238.64530326 446.01568604 240.83135986 C470.13109554 270.02564885 494.08339024 302.78029559 510.05865479 337.25323486 C509.2504126 337.71214111 508.44217041 338.17104736 507.60943604 338.64385986 C506.00648682 339.56425049 506.00648682 339.56425049 504.37115479 340.50323486 C503.3154126 341.10651611 502.25967041 341.70979736 501.17193604 342.33135986 C498.05818347 344.1587273 498.05818347 344.1587273 495.48052979 346.36260986 C493.00722761 348.29338124 490.94375255 349.23273734 487.99615479 350.25323486 C484.0445272 351.74090642 481.99866744 353.21838309 479.05865479 356.25323486 C471.48331232 360.25323486 471.48331232 360.25323486 468.05865479 360.25323486 C468.05865479 360.91323486 468.05865479 361.57323486 468.05865479 362.25323486 C464.72599012 364.00451038 461.39240115 365.75401948 458.05865479 367.50323486 C457.12408447 367.99436768 456.18951416 368.48550049 455.22662354 368.99151611 C439.80151896 377.08160593 439.80151896 377.08160593 434.18365479 379.19073486 C430.67316496 380.55622401 427.34080041 382.08377883 423.99615479 383.81573486 C420.9486464 385.3773463 418.01569991 386.67645992 414.74615479 387.69073486 C409.77488899 389.23715674 405.19297945 391.47439012 400.49224854 393.69464111 C395.9476317 395.75755592 391.31441891 397.52647414 386.64068604 399.27276611 C384.12197281 400.17967241 384.12197281 400.17967241 382.05865479 401.25323486 C381.39865479 400.92323486 380.73865479 400.59323486 380.05865479 400.25323486 C379.72865479 400.91323486 379.39865479 401.57323486 379.05865479 402.25323486 C376.43607299 403.15829441 373.8534032 403.95261961 371.18365479 404.69073486 C370.03522095 405.01787476 370.03522095 405.01787476 368.86358643 405.35162354 C366.59766733 405.99443915 364.32889514 406.62587121 362.05865479 407.25323486 C360.8791626 407.58065674 359.69967041 407.90807861 358.48443604 408.24542236 C356.01158636 408.92424384 353.53700777 409.59483871 351.05865479 410.25323486 C351.05865479 410.91323486 351.05865479 411.57323486 351.05865479 412.25323486 C350.01967041 412.56776611 348.98068604 412.88229736 347.91021729 413.20635986 C340.13947859 415.58155622 332.56514559 418.13044042 325.05865479 421.25323486 C319.01490934 423.66322528 313.01180411 426.04479865 306.74615479 427.81573486 C303.69976991 428.68473568 301.03501208 429.69172407 298.24615479 431.19073486 C292.82454469 434.0661637 286.9207942 435.52696068 281.05865479 437.25323486 C279.43047367 437.76403678 277.80499044 438.28360419 276.18365479 438.81573486 C275.54685791 439.02327393 274.91006104 439.23081299 274.25396729 439.44464111 C272.42467659 440.118419 270.63020124 440.88578607 268.84771729 441.67510986 C264.76451362 443.44384324 260.57903464 444.70731799 256.30865479 445.94073486 C255.55455322 446.16567627 254.80045166 446.39061768 254.02349854 446.62237549 C250.94704117 447.52126934 248.28061459 448.25323486 245.05865479 448.25323486 C245.05865479 448.91323486 245.05865479 449.57323486 245.05865479 450.25323486 C244.20654419 450.48659546 244.20654419 450.48659546 243.33721924 450.72467041 C233.4000016 453.46185004 223.62100516 456.23281404 214.05474854 460.08917236 C206.88606652 462.87439693 199.65106662 465.04438717 192.05865479 466.25323486 C190.04563995 466.87950615 188.04665296 467.55158845 186.05865479 468.25323486 C179.7032122 470.4263862 173.30025404 472.43061586 166.88043213 474.40338135 C163.29385192 475.51573977 159.78394716 476.70682072 156.30865479 478.12823486 C153.05865479 479.25323486 153.05865479 479.25323486 151.04302979 479.26104736 C148.36186535 477.89935362 147.67929154 476.04052797 146.644104 473.2991333 C145.66066408 469.86242497 145.39435025 466.43057476 145.12115479 462.87823486 C144.47686862 456.39772013 143.6084371 450.85690461 140.05865479 445.25323486 C139.6835376 444.64479736 139.30842041 444.03635986 138.92193604 443.40948486 C135.04382764 438.09892201 129.54889619 435.57779474 123.78912354 432.73370361 C121.05865479 431.25323486 121.05865479 431.25323486 120.05865479 429.25323486 C110.35321739 424.90252155 98.542342 424.51610349 88.46881104 428.08135986 C80.70629594 431.85567838 74.51963979 436.86953555 70.05865479 444.25323486 C66.92969093 442.77109409 65.3373106 442.0148941 64.12115479 438.69073486 C63.77052979 437.55635986 63.41990479 436.42198486 63.05865479 435.25323486 C60.12597048 429.55878958 57.34152619 425.00685402 52.05865479 421.25323486 C51.19240479 420.01573486 51.19240479 420.01573486 50.30865479 418.75323486 C47.54856003 415.68646292 44.87572531 414.62866937 41.08209229 413.14776611 C39.05865479 412.25323486 39.05865479 412.25323486 37.05865479 410.25323486 C26.21034368 406.91293568 15.11054884 406.1815776 3.93365479 408.06573486 C2.01552979 408.15854736 2.01552979 408.15854736 0.05865479 408.25323486 C-3.78364144 404.52092804 -5.34413982 400.1920461 -7.06634521 395.25323486 C-7.56858355 393.85726986 -8.07117954 392.46143347 -8.57415771 391.06573486 C-8.80651123 390.41218018 -9.03886475 389.75862549 -9.27825928 389.08526611 C-10.11080017 386.78505004 -11.01311455 384.51634962 -11.94134521 382.25323486 C-12.60134521 382.25323486 -13.26134521 382.25323486 -13.94134521 382.25323486 C-15.28466176 380.25992645 -16.61728533 378.2593862 -17.94134521 376.25323486 C-18.93134521 375.59323486 -19.92134521 374.93323486 -20.94134521 374.25323486 C-20.94134521 373.59323486 -20.94134521 372.93323486 -20.94134521 372.25323486 C-21.5227124 371.96448486 -22.10407959 371.67573486 -22.70306396 371.37823486 C-24.07058867 370.6908926 -25.42993816 369.98654021 -26.77337646 369.25323486 C-33.83774023 365.68621884 -41.16503278 365.03189065 -48.94134521 364.25323486 C-48.94134521 363.59323486 -48.94134521 362.93323486 -48.94134521 362.25323486 C-49.93134521 362.58323486 -50.92134521 362.91323486 -51.94134521 363.25323486 C-53.54983905 363.16741161 -55.15538899 363.01462112 -56.75384521 362.81573486 C-63.9862299 362.02960609 -68.16829741 362.29772309 -74.94134521 365.25323486 C-77.87884521 365.44073486 -77.87884521 365.44073486 -79.94134521 365.25323486 C-80.52734982 363.96277791 -81.10992983 362.67076599 -81.69134521 361.37823486 C-82.06130615 360.55581299 -82.43126709 359.73339111 -82.81243896 358.88604736 C-83.89203151 356.3682433 -84.82148929 353.82831314 -85.75384521 351.25323486 C-87.58883853 346.54831201 -90.20180732 342.99945624 -93.45306396 339.16339111 C-94.94134521 337.25323486 -94.94134521 337.25323486 -95.94134521 334.25323486 C-97.69002005 333.16892392 -97.69002005 333.16892392 -99.94134521 332.25323486 C-100.78697021 331.75823486 -101.63259521 331.26323486 -102.50384521 330.75323486 C-113.17126742 326.09835972 -128.98251512 324.95611161 -140.19134521 328.56573486 C-141.45619561 329.09399591 -142.70882227 329.65340703 -143.94134521 330.25323486 C-145.05509521 330.74823486 -146.16884521 331.24323486 -147.31634521 331.75323486 C-149.93179459 333.07366912 -149.93179459 333.07366912 -151.50384521 334.94073486 C-152.94134521 336.25323486 -152.94134521 336.25323486 -155.35150146 336.56182861 C-157.94134521 336.25323486 -157.94134521 336.25323486 -159.49603271 334.71417236 C-159.93173584 334.02581299 -160.36743896 333.33745361 -160.81634521 332.62823486 C-165.29317283 326.1591617 -170.312514 321.66233946 -177.94134521 319.25323486 C-182.56921972 318.69576623 -186.85175366 318.86763979 -190.94134521 321.25323486 C-194.0990226 324.83623206 -196.34745019 328.59787934 -198.56634521 332.81573486 C-199.15673584 333.93077393 -199.74712646 335.04581299 -200.35540771 336.19464111 C-201.57076067 338.53853609 -202.77223056 340.88606707 -203.94134521 343.25323486 C-204.60134521 343.25323486 -205.26134521 343.25323486 -205.94134521 343.25323486 C-206.06251709 343.99573486 -206.18368896 344.73823486 -206.30853271 345.50323486 C-206.92067393 348.16340411 -207.69017259 349.92012101 -209.06634521 352.25323486 C-210.62680627 354.93276942 -212.11738711 357.60312907 -213.51165771 360.37432861 C-216.87668539 367.01830186 -220.46072075 372.39103725 -225.60540771 377.77276611 C-228.88166153 381.25173128 -231.82232077 384.9762357 -234.80072021 388.71026611 C-237.04838406 391.38039232 -239.45156656 393.80948573 -241.94134521 396.25323486 C-242.65290771 397.08854736 -242.65290771 397.08854736 -243.37884521 397.94073486 C-245.64419767 399.84363092 -248.13090052 400.44132862 -250.94134521 401.25323486 C-250.94134521 401.91323486 -250.94134521 402.57323486 -250.94134521 403.25323486 C-256.69134521 406.25323486 -256.69134521 406.25323486 -258.94134521 406.25323486 C-258.94134521 406.91323486 -258.94134521 407.57323486 -258.94134521 408.25323486 C-259.56009521 408.33573486 -260.17884521 408.41823486 -260.81634521 408.50323486 C-263.08160657 409.04576495 -263.08160657 409.04576495 -264.00384521 411.06573486 C-264.31322021 411.78760986 -264.62259521 412.50948486 -264.94134521 413.25323486 C-266.44134521 415.50323486 -266.44134521 415.50323486 -267.94134521 417.25323486 C-268.60134521 417.25323486 -269.26134521 417.25323486 -269.94134521 417.25323486 C-270.17853271 417.90034424 -270.41572021 418.54745361 -270.66009521 419.21417236 C-271.68815334 421.65267608 -272.79039306 423.90250898 -274.03509521 426.22979736 C-279.99838991 437.61561288 -282.49606621 447.42632669 -282.94134521 460.25323486 C-284.16337646 460.70827393 -285.38540771 461.16331299 -286.64447021 461.63214111 C-296.17817569 465.01472177 -296.17817569 465.01472177 -303.94134521 471.25323486 C-304.60134521 471.25323486 -305.26134521 471.25323486 -305.94134521 471.25323486 C-305.94134521 471.91323486 -305.94134521 472.57323486 -305.94134521 473.25323486 C-306.60134521 473.25323486 -307.26134521 473.25323486 -307.94134521 473.25323486 C-308.23138428 473.83460205 -308.52142334 474.41596924 -308.82025146 475.01495361 C-309.51132354 476.39468985 -310.205892 477.77268907 -310.90618896 479.14776611 C-316.16481778 489.5171908 -319.63662548 500.13151622 -322.97650146 511.23760986 C-323.85093682 513.97066289 -324.83815484 516.60557796 -325.94134521 519.25323486 C-326.60134521 519.25323486 -327.26134521 519.25323486 -327.94134521 519.25323486 C-328.20947021 519.9841333 -328.47759521 520.71503174 -328.75384521 521.46807861 C-329.91548918 524.19259226 -331.25383981 526.38994584 -332.94134521 528.81573486 C-334.84197465 531.55739282 -336.51724673 534.23387221 -337.94134521 537.25323486 C-338.60134521 537.25323486 -339.26134521 537.25323486 -339.94134521 537.25323486 C-340.14388916 537.85627441 -340.34643311 538.45931396 -340.55511475 539.08062744 C-342.53497281 542.18361386 -344.70853499 542.71392979 -348.12103271 544.01495361 C-348.73020538 544.25107864 -349.33937805 544.48720367 -349.9670105 544.73048401 C-351.91202625 545.48042526 -353.86388472 546.21042705 -355.81634521 546.94073486 C-357.12280819 547.44275986 -358.42880406 547.94600224 -359.73431396 548.45050049 C-369.21530805 552.08724227 -369.21530805 552.08724227 -372.27459717 552.78668213 C-374.13483978 553.10301658 -374.13483978 553.10301658 -375.05462646 555.08135986 C-375.34724365 555.79807861 -375.63986084 556.51479736 -375.94134521 557.25323486 C-378.36088719 561.56672543 -381.00299818 565.45004737 -384.31634521 569.12823486 C-393.06184 579.0027979 -397.27412516 586.64587406 -396.84759521 600.24151611 C-395.69756145 609.48099195 -390.19811221 617.3249335 -382.92181396 623.01104736 C-375.12547461 627.90105903 -366.49780519 628.94822427 -357.54290771 629.85870361 C-353.94134521 630.25323486 -353.94134521 630.25323486 -351.14837646 630.86260986 C-348.47439615 631.33588072 -346.77219083 630.56787489 -344.24212646 629.73760986 C-338.21144846 628.46799344 -330.79855908 628.30083024 -324.94134521 630.25323486 C-323.37198928 633.39194674 -323.58933419 635.79179308 -323.94134521 639.25323486 C-326.4827168 642.41277792 -328.08757181 643.96864373 -331.94134521 645.25323486 C-331.94134521 645.91323486 -331.94134521 646.57323486 -331.94134521 647.25323486 C-333.11697021 647.37698486 -333.11697021 647.37698486 -334.31634521 647.50323486 C-335.18259521 647.75073486 -336.04884521 647.99823486 -336.94134521 648.25323486 C-337.3783374 649.15042236 -337.3783374 649.15042236 -337.82415771 650.06573486 C-339.23973284 652.83749036 -340.9734373 654.12826586 -343.44134521 656.00323486 C-344.23540771 656.61682861 -345.02947021 657.23042236 -345.84759521 657.86260986 C-347.94134521 659.25323486 -347.94134521 659.25323486 -349.94134521 659.25323486 C-350.31259521 660.11948486 -350.31259521 660.11948486 -350.69134521 661.00323486 C-351.94134521 663.25323486 -351.94134521 663.25323486 -353.81634521 664.87823486 C-359.99424873 671.78295056 -361.21632794 681.28456741 -360.94134521 690.25323486 C-359.47702281 700.23943359 -356.41592956 707.64735157 -348.52728271 714.08917236 C-346.93417658 715.32711807 -346.93417658 715.32711807 -344.94134521 716.25323486 C-344.94134521 716.91323486 -344.94134521 717.57323486 -344.94134521 718.25323486 C-334.80726942 722.68455583 -324.30601708 722.68202624 -313.58587646 720.85089111 C-308.30166832 719.99425263 -308.30166832 719.99425263 -305.94134521 721.69073486 C-305.61134521 722.20635986 -305.28134521 722.72198486 -304.94134521 723.25323486 C-305.60134521 725.23323486 -306.26134521 727.21323486 -306.94134521 729.25323486 C-307.60134521 729.25323486 -308.26134521 729.25323486 -308.94134521 729.25323486 C-308.94134521 729.91323486 -308.94134521 730.57323486 -308.94134521 731.25323486 C-309.60134521 731.25323486 -310.26134521 731.25323486 -310.94134521 731.25323486 C-316.05925159 742.95130657 -316.30114116 752.97432286 -311.67572021 764.90167236 C-308.39484549 771.24174109 -303.7741406 775.6098283 -297.19915771 778.42901611 C-294.44581064 779.2519003 -291.78013848 779.81492191 -288.94134521 780.25323486 C-288.1408374 780.38085205 -287.34032959 780.50846924 -286.51556396 780.63995361 C-279.36059256 781.54164395 -272.13893405 781.34657535 -264.94134521 781.25323486 C-264.99355225 782.17942627 -264.99355225 782.17942627 -265.04681396 783.12432861 C-265.24981218 789.4752729 -264.33069164 794.38947184 -261.94134521 800.25323486 C-261.46697021 801.44948486 -260.99259521 802.64573486 -260.50384521 803.87823486 C-256.38985704 812.76444932 -252.36333355 817.21400057 -243.37884521 821.50323486 C-237.31541859 824.6786637 -235.1805684 826.85545432 -232.94134521 833.25323486 C-232.28134521 834.24323486 -231.62134521 835.23323486 -230.94134521 836.25323486 C-231.20947021 836.74823486 -231.47759521 837.24323486 -231.75384521 837.75323486 C-234.72724344 844.01302061 -236.79424564 850.67488722 -238.94134521 857.25323486 C-239.60134521 857.25323486 -240.26134521 857.25323486 -240.94134521 857.25323486 C-240.94134521 857.91323486 -240.94134521 858.57323486 -240.94134521 859.25323486 C-241.60134521 859.25323486 -242.26134521 859.25323486 -242.94134521 859.25323486 C-242.61134521 860.57323486 -242.28134521 861.89323486 -241.94134521 863.25323486 C-242.60134521 863.25323486 -243.26134521 863.25323486 -243.94134521 863.25323486 C-244.05736084 863.95577393 -244.17337646 864.65831299 -244.29290771 865.38214111 C-245.93478021 872.65187777 -249.46971152 879.6754026 -252.94134521 886.25323486 C-253.60134521 886.25323486 -254.26134521 886.25323486 -254.94134521 886.25323486 C-255.02384521 887.20198486 -255.10634521 888.15073486 -255.19134521 889.12823486 C-256.14850258 895.84201009 -258.83286719 901.91111196 -262.94134521 907.25323486 C-264.39302967 910.40907064 -265.68492207 913.57561869 -266.91400146 916.82354736 C-267.2530249 917.70784424 -267.59204834 918.59214111 -267.94134521 919.50323486 C-268.25072021 920.33339111 -268.56009521 921.16354736 -268.87884521 922.01885986 C-269.9665122 924.30615956 -271.14289222 925.51423486 -272.94134521 927.25323486 C-273.66331684 929.85934563 -273.66331684 929.85934563 -273.94134521 932.25323486 C-274.60134521 932.25323486 -275.26134521 932.25323486 -275.94134521 932.25323486 C-277.33951863 934.6126525 -277.94833604 935.97360187 -277.87884521 938.75323486 C-277.94134521 941.25323486 -277.94134521 941.25323486 -279.25384521 942.93292236 C-281.48530977 946.00118613 -282.6839899 949.35411992 -284.00384521 952.87823486 C-286.67711911 959.98900876 -286.67711911 959.98900876 -288.94134521 962.25323486 C-289.97977087 964.56972285 -290.98354272 966.9022651 -291.94134521 969.25323486 C-292.60134521 969.25323486 -293.26134521 969.25323486 -293.94134521 969.25323486 C-294.07798584 969.81784424 -294.21462646 970.38245361 -294.35540771 970.96417236 C-294.95111915 973.29141836 -295.60285175 975.58431501 -296.31634521 977.87823486 C-296.55095459 978.65425049 -296.78556396 979.43026611 -297.02728271 980.22979736 C-297.94134521 982.25323486 -297.94134521 982.25323486 -300.94134521 984.25323486 C-302.58810155 987.310884 -303.99911001 990.44224577 -305.44134521 993.60089111 C-306.94134521 996.25323486 -306.94134521 996.25323486 -309.94134521 997.25323486 C-311.01388872 999.51548868 -311.01388872 999.51548868 -311.94134521 1002.25323486 C-312.92491873 1004.26136413 -313.92443258 1006.26178095 -314.94134521 1008.25323486 C-315.46728271 1009.39792236 -315.46728271 1009.39792236 -316.00384521 1010.56573486 C-316.94134521 1012.25323486 -316.94134521 1012.25323486 -318.94134521 1013.25323486 C-319.66293946 1014.8968662 -320.33485942 1016.56373872 -320.94134521 1018.25323486 C-321.60134521 1018.25323486 -322.26134521 1018.25323486 -322.94134521 1018.25323486 C-322.94134521 1019.24323486 -322.94134521 1020.23323486 -322.94134521 1021.25323486 C-323.60134521 1021.25323486 -324.26134521 1021.25323486 -324.94134521 1021.25323486 C-325.06509521 1022.05760986 -325.18884521 1022.86198486 -325.31634521 1023.69073486 C-325.52259521 1024.53635986 -325.72884521 1025.38198486 -325.94134521 1026.25323486 C-326.60134521 1026.58323486 -327.26134521 1026.91323486 -327.94134521 1027.25323486 C-328.99182166 1029.56428304 -329.99141959 1031.89907137 -330.94134521 1034.25323486 C-331.27134521 1034.91323486 -331.60134521 1035.57323486 -331.94134521 1036.25323486 C-332.60134521 1036.25323486 -333.26134521 1036.25323486 -333.94134521 1036.25323486 C-334.04447021 1036.97510986 -334.14759521 1037.69698486 -334.25384521 1038.44073486 C-335.02409978 1041.59177625 -336.17103224 1043.53453993 -337.94134521 1046.25323486 C-338.7986348 1047.60542665 -339.65258235 1048.95974092 -340.50384521 1050.31573486 C-340.91763428 1050.96671143 -341.33142334 1051.61768799 -341.75775146 1052.28839111 C-342.92937219 1054.23335885 -343.95368904 1056.20965135 -344.94134521 1058.25323486 C-345.60134521 1058.25323486 -346.26134521 1058.25323486 -346.94134521 1058.25323486 C-347.18884521 1058.99573486 -347.43634521 1059.73823486 -347.69134521 1060.50323486 C-348.94134521 1063.25323486 -348.94134521 1063.25323486 -350.87884521 1065.00323486 C-353.87928485 1068.27644174 -354.75233299 1072.03764606 -355.94134521 1076.25323486 C-356.60134521 1076.25323486 -357.26134521 1076.25323486 -357.94134521 1076.25323486 C-358.04447021 1076.84233643 -358.14759521 1077.43143799 -358.25384521 1078.03839111 C-359.04835817 1080.59798682 -360.09662228 1081.77062661 -361.94134521 1083.69073486 C-364.52236342 1086.55989525 -365.41856695 1088.38467567 -365.94134521 1092.25323486 C-366.92163138 1093.60112834 -367.92105656 1094.93536202 -368.94134521 1096.25323486 C-369.64649368 1098.40057413 -369.64649368 1098.40057413 -369.94134521 1100.25323486 C-370.60134521 1100.25323486 -371.26134521 1100.25323486 -371.94134521 1100.25323486 C-372.27134521 1101.57323486 -372.60134521 1102.89323486 -372.94134521 1104.25323486 C-373.60134521 1104.25323486 -374.26134521 1104.25323486 -374.94134521 1104.25323486 C-374.61134521 1105.24323486 -374.28134521 1106.23323486 -373.94134521 1107.25323486 C-375.11697021 1108.33604736 -375.11697021 1108.33604736 -376.31634521 1109.44073486 C-378.78546959 1112.08622527 -379.87394799 1113.85697097 -380.94134521 1117.25323486 C-381.60134521 1117.25323486 -382.26134521 1117.25323486 -382.94134521 1117.25323486 C-383.03415771 1118.58354736 -383.03415771 1118.58354736 -383.12884521 1119.94073486 C-384.15004342 1124.10408139 -385.9183968 1125.23028645 -388.94134521 1128.25323486 C-390.57540676 1130.99714774 -392.05373895 1133.79116969 -393.51165771 1136.63214111 C-394.83899849 1139.06559921 -396.07713032 1141.20066665 -397.94134521 1143.25323486 C-398.93134521 1143.25323486 -399.92134521 1143.25323486 -400.94134521 1143.25323486 C-401.08572021 1144.51135986 -401.23009521 1145.76948486 -401.37884521 1147.06573486 C-401.67883208 1149.67990609 -402.09947819 1151.72763379 -402.94134521 1154.25323486 C-403.93134521 1154.58323486 -404.92134521 1154.91323486 -405.94134521 1155.25323486 C-406.37447021 1156.39792236 -406.37447021 1156.39792236 -406.81634521 1157.56573486 C-407.94134521 1160.25323486 -407.94134521 1160.25323486 -410.37884521 1162.19073486 C-413.34537768 1164.57843173 -414.34965005 1166.8424595 -415.94134521 1170.25323486 C-416.60134521 1170.58323486 -417.26134521 1170.91323486 -417.94134521 1171.25323486 C-418.04447021 1171.85135986 -418.14759521 1172.44948486 -418.25384521 1173.06573486 C-418.94134521 1175.25323486 -418.94134521 1175.25323486 -421.50384521 1177.06573486 C-422.71040771 1178.14854736 -422.71040771 1178.14854736 -423.94134521 1179.25323486 C-423.98376245 1181.58618262 -423.98227459 1183.92026053 -423.94134521 1186.25323486 C-425.94134521 1189.19073486 -425.94134521 1189.19073486 -427.94134521 1191.25323486 C-432.24512128 1190.33623879 -435.57750564 1188.21127108 -439.25384521 1185.87823486 C-439.96242676 1185.43125244 -440.6710083 1184.98427002 -441.40106201 1184.52374268 C-448.12321093 1180.22909868 -454.52760297 1175.56315578 -460.90179443 1170.77325439 C-463.09041815 1169.14213502 -465.29683193 1167.53758428 -467.50775146 1165.93682861 C-478.3219844 1158.08943004 -488.74372288 1149.88527841 -498.94134521 1141.25323486 C-499.57975342 1140.71392334 -500.21816162 1140.17461182 -500.87591553 1139.61895752 C-508.3493137 1133.29308009 -515.70928659 1126.85445971 -522.94134521 1120.25323486 C-523.83079834 1119.45659424 -524.72025146 1118.65995361 -525.63665771 1117.83917236 C-533.25967221 1110.96176287 -540.54958086 1103.75261771 -547.81634521 1096.50323486 C-548.31443695 1096.00773132 -548.81252869 1095.51222778 -549.32571411 1095.00170898 C-554.53540308 1089.81337428 -559.65359882 1084.58769052 -564.43890381 1079.00079346 C-566.66240017 1076.41454273 -568.99167912 1073.93643495 -571.31634521 1071.44073486 C-575.55445223 1066.84764111 -579.59734714 1062.14053264 -583.51556396 1057.26885986 C-585.29494387 1055.05681271 -587.08765074 1052.86116647 -588.89837646 1050.67510986 C-610.59836025 1024.4049527 -630.05388472 995.84967749 -646.94134521 966.25323486 C-647.34643311 965.54908447 -647.751521 964.84493408 -648.16888428 964.1194458 C-651.17588035 958.87468521 -654.08149631 953.57950374 -656.94134521 948.25323486 C-657.46986084 947.27000244 -657.99837646 946.28677002 -658.54290771 945.27374268 C-696.04619319 875.12633028 -719.46962142 798.30250935 -728.69134521 719.3614502 C-728.92971536 717.35130778 -729.18319258 715.34297394 -729.43743896 713.33477783 C-734.89625803 669.03826567 -734.95008899 620.68932245 -729.2199707 576.4185791 C-728.91694737 574.06362645 -728.62775013 571.70718254 -728.33929443 569.35040283 C-718.48991533 489.7786895 -694.49517434 413.01588326 -589.36517334 241.97686768 C-587.35294049 239.54093422 -585.36826772 237.08281011 -583.37884521 234.62823486 C-568.63952178 216.65874662 -568.63952178 216.65874662 -561.60906982 209.92193604 C-559.98069347 208.29260616 -558.50495536 206.60284764 -557.01947021 204.84307861 C-552.31757961 199.43624482 -547.24531727 194.40741621 -542.17156982 189.35308838 C-540.50708244 187.69396166 -538.84801075 186.02955435 -537.18939209 184.36456299 C-531.61105724 178.78273663 -525.94679493 173.37731175 -519.94134521 168.25323486 C-518.16564301 166.6335567 -516.39426214 165.00911768 -514.62884521 163.37823486 C-510.21781348 159.35942893 -505.70399164 155.52458163 -501.05853271 151.78057861 C-498.72896579 149.9027557 -496.42877125 147.99299369 -494.13665771 146.06964111 C-471.83725328 127.40393944 -447.98382751 110.25860113 -422.95111084 95.44854736 C-421.04694333 94.31603958 -419.15629222 93.1643561 -417.26947021 92.00323486 C-407.2907327 85.88394085 -397.0390521 80.28300021 -386.72601318 74.74981689 C-384.10656822 73.34203173 -381.49452472 71.92127697 -378.88275146 70.49932861 C-307.62574014 32.05602433 -227.31514182 9.75496969 -147.14453125 0.51037598 C-145.05912696 0.26698156 -142.97557023 0.01153629 -140.89202881 -0.24725342 C-95.19551069 -5.72494438 -45.67096958 -5.67263829 0 0 Z " fill="#4FC777" transform="translate(1071.9413452148438,354.74676513671875)"/>
<path d="M0 0 C2.37232769 3.55849154 2.37603694 5.46734171 2.61230469 9.7043457 C2.64976177 10.3681918 2.68721886 11.03203791 2.725811 11.71600056 C3.10905633 19.05016225 3.18130819 26.38752563 3.203125 33.73046875 C3.21018824 35.20276929 3.21732093 36.67506949 3.22451782 38.14736938 C3.24404781 42.82741803 3.24920997 47.50741442 3.25 52.1875 C3.25044186 53.38421137 3.25044186 53.38421137 3.25089264 54.60509872 C3.25225502 77.43783762 3.21420555 100.15444136 0.27862549 122.83465576 C-0.02439785 125.18960841 -0.31359509 127.54605233 -0.60205078 129.90283203 C-10.45142989 209.47454536 -34.44617087 286.2373516 -139.57617188 457.27636719 C-141.58840473 459.71230065 -143.5730775 462.17042475 -145.5625 464.625 C-160.30182343 482.59448824 -160.30182343 482.59448824 -167.33227539 489.33129883 C-168.96065175 490.96062871 -170.43638985 492.65038722 -171.921875 494.41015625 C-176.62376561 499.81699004 -181.69602794 504.84581865 -186.76977539 509.90014648 C-188.43426277 511.5592732 -190.09333447 513.22368051 -191.75195312 514.88867188 C-197.33028797 520.47049823 -202.99455028 525.87592311 -209 531 C-210.77570221 532.61967817 -212.54708307 534.24411718 -214.3125 535.875 C-218.72353173 539.89380593 -223.23735358 543.72865324 -227.8828125 547.47265625 C-230.21237942 549.35047916 -232.51257397 551.26024117 -234.8046875 553.18359375 C-257.10409194 571.84929542 -280.9575177 588.99463373 -305.99023438 603.8046875 C-307.89440188 604.93719529 -309.785053 606.08887877 -311.671875 607.25 C-321.65061251 613.36929401 -331.90229312 618.97023465 -342.21533203 624.50341797 C-344.83477699 625.91120313 -347.4468205 627.33195789 -350.05859375 628.75390625 C-417.37051143 665.06882439 -493.78024115 687.74279764 -637.23046875 702.203125 C-638.74534122 702.21001995 -640.26021345 702.21696918 -641.77508545 702.22396851 C-646.57922622 702.24296398 -651.38332645 702.24762228 -656.1875 702.25 C-657.00092487 702.25088371 -657.81434975 702.25176743 -658.65242386 702.25267792 C-697.70560267 702.29039107 -697.70560267 702.29039107 -716.9375 700.625 C-717.68599213 700.56187622 -718.43448425 700.49875244 -719.20565796 700.43371582 C-730.56459825 699.43540175 -730.56459825 699.43540175 -733 697 C-732.40975852 695.34912153 -731.80233994 693.70437593 -731.1875 692.0625 C-730.85105469 691.14597656 -730.51460937 690.22945312 -730.16796875 689.28515625 C-729 687 -729 687 -726 686 C-725.93941406 685.39671875 -725.87882813 684.7934375 -725.81640625 684.171875 C-725.73261719 683.37265625 -725.64882813 682.5734375 -725.5625 681.75 C-725.48128906 680.96109375 -725.40007813 680.1721875 -725.31640625 679.359375 C-724.79789184 675.49292186 -723.76526428 672.28483309 -722.125 668.75 C-720.22041107 664.55851415 -718.57314456 660.32614753 -717 656 C-716.34 656 -715.68 656 -715 656 C-714.01 653.03 -713.02 650.06 -712 647 C-711.01 647 -710.02 647 -709 647 C-709 644.03 -709 641.06 -709 638 C-708.34 638 -707.68 638 -707 638 C-707.061875 636.80375 -707.12375 635.6075 -707.1875 634.375 C-707.1875 629.30377066 -705.30513706 625.98945217 -702.5546875 621.796875 C-700.70678221 618.47250267 -699.56371556 615.05062688 -698.4375 611.4375 C-695.92967271 603.49475287 -695.92967271 603.49475287 -694 600 C-693.01 600 -692.02 600 -691 600 C-691 597.03 -691 594.06 -691 591 C-690.67 591 -690.34 591 -690 591 C-689.7525 589.7625 -689.505 588.525 -689.25 587.25 C-687.7094151 580.31736794 -685.963128 572.944692 -682 567 C-681.7525 565.7625 -681.505 564.525 -681.25 563.25 C-680.05261448 557.39717958 -677.71658028 552.01345668 -675.44921875 546.515625 C-674.37821922 543.91751292 -673.34487812 541.32385379 -672.375 538.6875 C-671.92125 537.470625 -671.4675 536.25375 -671 535 C-670.52433594 533.71609375 -670.52433594 533.71609375 -670.0390625 532.40625 C-669.69617188 531.5090625 -669.35328125 530.611875 -669 529.6875 C-668.690625 528.86636719 -668.38125 528.04523437 -668.0625 527.19921875 C-667 525 -667 525 -665.375 523.39453125 C-663.64894866 521.97036264 -663.64894866 521.97036264 -664 519 C-663.33333333 517.66666667 -662.66666667 516.33333333 -662 515 C-661.5359375 513.329375 -661.5359375 513.329375 -661.0625 511.625 C-660.04195439 508.14313852 -658.64675051 505.21864872 -657 502 C-657 501.34 -657 500.68 -657 500 C-656.34 500 -655.68 500 -655 500 C-654.34 495.71 -653.68 491.42 -653 487 C-652.01 487 -651.02 487 -650 487 C-650.33 485.02 -650.66 483.04 -651 481 C-650.34 481 -649.68 481 -649 481 C-648.92652344 479.93458984 -648.92652344 479.93458984 -648.8515625 478.84765625 C-648.73941406 477.46900391 -648.73941406 477.46900391 -648.625 476.0625 C-648.55539062 475.14597656 -648.48578125 474.22945312 -648.4140625 473.28515625 C-648.27742187 472.53105469 -648.14078125 471.77695313 -648 471 C-647.34 470.67 -646.68 470.34 -646 470 C-645.34786708 467.97536745 -645.34786708 467.97536745 -645 466 C-644.34 466 -643.68 466 -643 466 C-642.896875 464.96875 -642.79375 463.9375 -642.6875 462.875 C-642.00237332 459.0133769 -640.7979125 456.44599896 -639 453 C-638.30092586 450.26427415 -638.30092586 450.26427415 -638 448 C-637.34 448 -636.68 448 -636 448 C-635.67 447.34 -635.34 446.68 -635 446 C-635.99 445.67 -636.98 445.34 -638 445 C-636.78065514 440.96678237 -635.44045073 437.45730521 -633 434 C-632.34 434 -631.68 434 -631 434 C-630.87625 433.38125 -630.7525 432.7625 -630.625 432.125 C-630 430 -630 430 -628 428 C-627.3574765 425.93125966 -627.3574765 425.93125966 -627 424 C-626.34 424 -625.68 424 -625 424 C-624.67 422.35 -624.34 420.7 -624 419 C-623.01 419 -622.02 419 -621 419 C-621.99 417.515 -621.99 417.515 -623 416 C-622.6884236 412.05336556 -621.28820274 409.20348384 -619 406 C-618.34 406 -617.68 406 -617 406 C-616.76410156 405.13761719 -616.52820312 404.27523438 -616.28515625 403.38671875 C-614.87045654 399.65861952 -612.9106757 396.87876902 -610.4375 393.8125 C-609.99639893 393.25079102 -609.55529785 392.68908203 -609.10083008 392.11035156 C-606.19802869 388.43219051 -603.19755392 384.84085292 -600.1875 381.25 C-597.02230689 377.41289747 -594.44337755 373.63728921 -592.171875 369.21875 C-590.92681856 366.86144314 -589.50981374 364.67561403 -588.0625 362.4375 C-585.50053954 358.22202934 -583.72188918 353.87812722 -582.0625 349.25 C-578.42516372 339.11836078 -574.24413217 329.25745739 -567.4140625 320.8203125 C-565.37233454 318.19201076 -563.73928571 315.34809523 -562.078125 312.46875 C-561.54445313 311.74171875 -561.54445313 311.74171875 -561 311 C-560.34 311 -559.68 311 -559 311 C-558.7525 310.113125 -558.505 309.22625 -558.25 308.3125 C-556.94861577 304.86383178 -555.3557488 302.7974517 -553 300 C-552.29114106 298.68861096 -551.60543548 297.36222983 -551 296 C-550.34 296 -549.68 296 -549 296 C-548.75894531 295.28328125 -548.51789063 294.5665625 -548.26953125 293.828125 C-546.82040288 290.59991288 -545.0071825 288.41666022 -542.6875 285.75 C-539.28584926 281.70170959 -536.59288634 277.79407353 -534.17578125 273.109375 C-532.95080206 270.91173791 -531.55846446 269.03523983 -530 267.0625 C-526.6206781 262.68317468 -524.31677365 258.0056352 -522 253 C-521.49210937 251.90558594 -520.98421875 250.81117188 -520.4609375 249.68359375 C-519.44509467 247.484269 -518.43420946 245.28264346 -517.4296875 243.078125 C-516.00990986 240.02133599 -514.52160915 237.00720389 -513 234 C-512.34 234 -511.68 234 -511 234 C-510.79375 233.319375 -510.5875 232.63875 -510.375 231.9375 C-508.80637043 228.58633682 -506.80901238 226.27350754 -504.33984375 223.55078125 C-502.90910919 222.02350546 -502.90910919 222.02350546 -502 220 C-501.34 220 -500.68 220 -500 220 C-499.77441406 219.45472656 -499.54882812 218.90945313 -499.31640625 218.34765625 C-497.60843413 215.30168816 -495.32877144 212.94762271 -492.9375 210.4375 C-475.23748088 191.43427049 -460.30261127 170.37780609 -449 147 C-448.49082031 145.99324219 -447.98164062 144.98648437 -447.45703125 143.94921875 C-443.8587071 136.66574762 -440.83667857 129.24101329 -438.87109375 121.3515625 C-437.42131816 117.43781852 -435.86283203 114.08257167 -432.13305664 111.91503906 C-429.88591821 110.94405016 -427.62697929 110.10935031 -425.3125 109.3125 C-424.54744141 109.03083984 -423.78238281 108.74917969 -422.99414062 108.45898438 C-420.67148335 107.61171344 -418.33907252 106.80073711 -416 106 C-415.24154785 105.73638672 -414.4830957 105.47277344 -413.70166016 105.20117188 C-408.76744866 103.51429828 -403.81679901 102.10242224 -398.75 100.875 C-398.069375 100.70613281 -397.38875 100.53726562 -396.6875 100.36328125 C-387.08550689 98 -387.08550689 98 -383 98 C-383 97.34 -383 96.68 -383 96 C-382.12786865 95.79842285 -381.2557373 95.5968457 -380.35717773 95.38916016 C-377.09349673 94.63391743 -373.83019839 93.87706126 -370.56713867 93.11914062 C-369.1600601 92.79265581 -367.75283593 92.46679778 -366.34545898 92.14160156 C-364.31194225 91.67160762 -362.27897565 91.1992938 -360.24609375 90.7265625 C-359.02591553 90.44377441 -357.8057373 90.16098633 -356.54858398 89.86962891 C-351.90134489 88.73075958 -347.32411031 87.39326869 -342.73828125 86.03125 C-337.91982155 84.70201974 -333.0633308 83.59681265 -328.1875 82.5 C-327.25357422 82.28730469 -326.31964844 82.07460937 -325.35742188 81.85546875 C-319.95130688 80.63243371 -314.54600848 79.50847694 -309.0871582 78.54492188 C-306.71770353 78.04762291 -306.71770353 78.04762291 -304 76 C-301.75 75.5078125 -301.75 75.5078125 -299 75.125 C-292.49957594 74.13165892 -286.10080191 72.79591178 -279.67578125 71.40869141 C-268.47083685 69 -268.47083685 69 -265 69 C-265 68.34 -265 67.68 -265 67 C-264.12786865 66.79842285 -263.2557373 66.5968457 -262.35717773 66.38916016 C-259.09349673 65.63391743 -255.83019839 64.87706126 -252.56713867 64.11914062 C-251.1600601 63.79265581 -249.75283593 63.46679778 -248.34545898 63.14160156 C-246.31194225 62.67160762 -244.27897565 62.1992938 -242.24609375 61.7265625 C-241.02591553 61.44377441 -239.8057373 61.16098633 -238.54858398 60.86962891 C-233.66470544 59.67276786 -228.84959574 58.34856497 -224.125 56.625 C-218.90936397 54.85348225 -213.57005052 53.66100256 -208.20361328 52.44580078 C-202.26528676 51.09711468 -196.4613595 49.5149266 -190.7109375 47.5 C-185.75907352 45.83050244 -180.76441871 44.89613746 -175.625 44 C-168.2986948 42.66526876 -161.13471233 41.15700605 -154 39 C-148.68482585 37.40866907 -143.36697335 36.1746672 -137.9375 35.0625 C-136.25260326 34.71094186 -134.56770743 34.35937932 -132.8828125 34.0078125 C-129.90010583 33.38985806 -126.91588752 32.78050558 -123.9296875 32.1796875 C-118.41283961 31.04772087 -113.26903046 29.8376292 -108.06640625 27.69140625 C-104.41649775 26.47017033 -100.6292195 25.99702624 -96.83203125 25.4296875 C-92.84975958 24.82548076 -88.9577191 24.01960745 -85.0625 23 C-81.09480955 21.99495176 -77.11225092 21 -73 21 C-73 20.34 -73 19.68 -73 19 C-72.31035156 18.87882813 -71.62070313 18.75765625 -70.91015625 18.6328125 C-69.97042969 18.46523438 -69.03070312 18.29765625 -68.0625 18.125 C-66.68771484 17.88136719 -66.68771484 17.88136719 -65.28515625 17.6328125 C-58.15615929 16.25956933 -51.16766595 14.55345105 -44.1875 12.5625 C-39.05703743 11.11646025 -33.92881454 9.70266006 -28.75 8.4375 C-19.03770083 6.05320464 -9.45389062 3.25996228 0 0 Z " fill="#4FC777" transform="translate(1658,947)"/>
<path d="M0 0 C2.17940806 0.26808871 4.36018744 0.52171647 6.54156494 0.77325439 C70.69115573 8.2393565 133.79332923 24.47831654 193.05865479 50.25323486 C194.00692139 50.66235107 194.95518799 51.07146729 195.93218994 51.49298096 C201.68575393 53.98700602 207.3800556 56.59365165 213.05865479 59.25323486 C214.48903076 59.91524902 214.48903076 59.91524902 215.94830322 60.59063721 C230.53423566 67.35489236 244.61594176 74.72525442 258.52105713 82.79278564 C261.48768217 84.50015057 264.48179132 86.15289479 267.48126221 87.80157471 C275.9621388 92.47841174 284.08095005 97.6474195 292.15435791 102.99249268 C293.83223877 104.10333585 295.51536073 105.20625392 297.19927979 106.30792236 C326.55650544 125.63877314 354.10687804 147.5651645 380.05865479 171.25323486 C381.39283447 172.4481958 381.39283447 172.4481958 382.75396729 173.66729736 C390.37698178 180.54470686 397.66689043 187.75385202 404.93365479 195.00323486 C405.68079239 195.74649017 405.68079239 195.74649017 406.44302368 196.50476074 C411.65271265 201.69309545 416.77090839 206.91877921 421.55621338 212.50567627 C423.77970974 215.09192699 426.10898869 217.57003478 428.43365479 220.06573486 C432.6717618 224.65882862 436.71465671 229.36593708 440.63287354 234.23760986 C442.41225344 236.44965702 444.20496031 238.64530326 446.01568604 240.83135986 C470.13109554 270.02564885 494.08339024 302.78029559 510.05865479 337.25323486 C509.39865479 337.25323486 508.73865479 337.25323486 508.05865479 337.25323486 C507.54987793 336.33103149 507.54987793 336.33103149 507.03082275 335.39019775 C487.54606851 300.31314017 464.75513469 266.82482302 438.66021729 236.32354736 C436.31607777 233.57589441 434.05982162 230.76523258 431.80865479 227.94073486 C426.19679962 221.04387529 420.02846992 214.67057406 413.91461182 208.22247314 C411.14167353 205.28028422 408.4140104 202.29736651 405.68365479 199.31573486 C399.08894448 192.14724013 392.35278333 185.27626211 384.95709229 178.93292236 C383.07894725 177.27118911 381.31559963 175.54197961 379.55865479 173.75323486 C375.89568852 170.04110127 372.01630878 166.64642605 368.05865479 163.25323486 C367.01534098 162.34607947 365.972401 161.43849405 364.92974854 160.53057861 C357.44848755 154.03843434 349.81124675 147.8042963 341.97613525 141.74542236 C339.92146449 140.14647308 337.88203509 138.52933904 335.84381104 136.90948486 C325.23731863 128.51214151 314.3258532 120.73603075 303.05865479 113.25323486 C302.17049072 112.65897705 301.28232666 112.06471924 300.36724854 111.45245361 C285.92409474 101.80337056 271.19241753 92.7776994 256.05865479 84.25323486 C254.61135986 83.4377417 254.61135986 83.4377417 253.13482666 82.60577393 C204.95312747 55.63115081 154.15891347 36.10211888 101.05865479 21.25323486 C100.11973389 20.98575439 99.18081299 20.71827393 98.21343994 20.44268799 C83.35099392 16.21551209 68.20822287 13.25129543 53.05865479 10.25323486 C52.09588623 10.05842529 51.13311768 9.86361572 50.14117432 9.66290283 C-11.95265593 -2.85116528 -77.08400108 -3.87707035 -139.94134521 2.25323486 C-141.18641846 2.37070068 -142.4314917 2.4881665 -143.71429443 2.60919189 C-221.6661673 10.13807375 -296.65631747 33.32108639 -366.94134521 67.25323486 C-367.88928955 67.70795166 -368.83723389 68.16266846 -369.81390381 68.63116455 C-396.32814875 81.39528394 -421.69893585 96.59059933 -445.94134521 113.25323486 C-446.72396729 113.79093506 -447.50658936 114.32863525 -448.31292725 114.88262939 C-458.74464318 122.07186544 -468.99278941 129.4084501 -478.94134521 137.25323486 C-480.07732402 138.13309727 -481.21406721 139.01197353 -482.35150146 139.88995361 C-493.53460424 148.5514982 -504.23807582 157.72665351 -514.70697021 167.23760986 C-516.80216585 169.12768145 -518.92753087 170.97535973 -521.06634521 172.81573486 C-524.52659689 175.82434727 -527.73711165 179.03029475 -530.95306396 182.29620361 C-532.82685563 184.14054473 -534.75447992 185.85955552 -536.75384521 187.56573486 C-544.00344039 193.81637008 -550.73378627 200.69004072 -556.94134521 207.97198486 C-559.11045081 210.44612093 -561.35005463 212.84245679 -563.60247803 215.24053955 C-568.85575907 220.83505936 -573.91264431 226.49981715 -578.71087646 232.49542236 C-580.72085651 234.98061661 -582.78291616 237.41139776 -584.87005615 239.83184814 C-591.05317891 247.02076469 -596.78348261 254.49699288 -602.39105225 262.14093018 C-603.42255527 263.54637335 -604.45737877 264.94938569 -605.49554443 266.34991455 C-626.51627278 294.71381413 -644.60180812 324.98758076 -660.94134521 356.25323486 C-661.65967529 357.61400146 -661.65967529 357.61400146 -662.39251709 359.0022583 C-675.75253827 384.40524893 -686.38901302 411.21833243 -695.94134521 438.25323486 C-696.2344458 439.07211182 -696.52754639 439.89098877 -696.82952881 440.73468018 C-700.98748401 452.40499154 -704.19892715 464.29649633 -707.35150146 476.27276611 C-708.49289024 480.60444646 -709.70717508 484.90257677 -711.00384521 489.19073486 C-719.34239583 518.26875753 -723.43180601 548.25620819 -726.69134521 578.25323486 C-726.79834747 579.23692047 -726.90534973 580.22060608 -727.01559448 581.23410034 C-727.69865458 587.57004414 -728.34153995 593.90887248 -728.94134521 600.25323486 C-729.1169397 602.09377441 -729.1169397 602.09377441 -729.29608154 603.97149658 C-730.35283874 617.07227457 -730.13911967 630.2448892 -730.12884521 643.37823486 C-730.1285733 644.67691498 -730.12830139 645.97559509 -730.12802124 647.31362915 C-730.11126595 664.67224025 -729.98088386 681.90825797 -728.24017334 699.19219971 C-727.93371331 702.33141205 -727.69161855 705.4711792 -727.45697021 708.61651611 C-726.12987341 724.90328782 -723.44439121 740.91761722 -720.62884521 757.00323486 C-720.44433807 758.06753723 -720.25983093 759.1318396 -720.06973267 760.22839355 C-704.29005204 850.65625787 -666.67458108 936.05632785 -581.54290771 1055.18292236 C-579.1987682 1057.93057531 -576.94251205 1060.74123715 -574.69134521 1063.56573486 C-569.07949005 1070.46259444 -562.91116035 1076.83589567 -556.79730225 1083.28399658 C-554.02436396 1086.22618551 -551.29670083 1089.20910322 -548.56634521 1092.19073486 C-541.97163491 1099.3592296 -535.23547376 1106.23020761 -527.83978271 1112.57354736 C-525.96163768 1114.23528062 -524.19829006 1115.96449011 -522.44134521 1117.75323486 C-518.77837895 1121.46536846 -514.8989992 1124.86004368 -510.94134521 1128.25323486 C-509.89803141 1129.16039026 -508.85509143 1130.06797567 -507.81243896 1130.97589111 C-500.33117798 1137.46803538 -492.69393718 1143.70217343 -484.85882568 1149.76104736 C-482.80415492 1151.35999665 -480.76472552 1152.97713068 -478.72650146 1154.59698486 C-466.72994551 1164.0931001 -454.272989 1172.74651458 -441.51556396 1181.18292236 C-440.82615723 1181.63957275 -440.13675049 1182.09622314 -439.42645264 1182.56671143 C-438.14415343 1183.41390259 -436.85932398 1184.25728199 -435.57147217 1185.0960083 C-432.7631785 1186.94301521 -430.18640447 1188.73556127 -427.94134521 1191.25323486 C-432.24512128 1190.33623879 -435.57750564 1188.21127108 -439.25384521 1185.87823486 C-439.96242676 1185.43125244 -440.6710083 1184.98427002 -441.40106201 1184.52374268 C-448.12321093 1180.22909868 -454.52760297 1175.56315578 -460.90179443 1170.77325439 C-463.09041815 1169.14213502 -465.29683193 1167.53758428 -467.50775146 1165.93682861 C-478.3219844 1158.08943004 -488.74372288 1149.88527841 -498.94134521 1141.25323486 C-499.57975342 1140.71392334 -500.21816162 1140.17461182 -500.87591553 1139.61895752 C-508.3493137 1133.29308009 -515.70928659 1126.85445971 -522.94134521 1120.25323486 C-523.83079834 1119.45659424 -524.72025146 1118.65995361 -525.63665771 1117.83917236 C-533.25967221 1110.96176287 -540.54958086 1103.75261771 -547.81634521 1096.50323486 C-548.31443695 1096.00773132 -548.81252869 1095.51222778 -549.32571411 1095.00170898 C-554.53540308 1089.81337428 -559.65359882 1084.58769052 -564.43890381 1079.00079346 C-566.66240017 1076.41454273 -568.99167912 1073.93643495 -571.31634521 1071.44073486 C-575.55445223 1066.84764111 -579.59734714 1062.14053264 -583.51556396 1057.26885986 C-585.29494387 1055.05681271 -587.08765074 1052.86116647 -588.89837646 1050.67510986 C-610.59836025 1024.4049527 -630.05388472 995.84967749 -646.94134521 966.25323486 C-647.34643311 965.54908447 -647.751521 964.84493408 -648.16888428 964.1194458 C-651.17588035 958.87468521 -654.08149631 953.57950374 -656.94134521 948.25323486 C-657.46986084 947.27000244 -657.99837646 946.28677002 -658.54290771 945.27374268 C-696.04619319 875.12633028 -719.46962142 798.30250935 -728.69134521 719.3614502 C-728.92971536 717.35130778 -729.18319258 715.34297394 -729.43743896 713.33477783 C-734.89625803 669.03826567 -734.95008899 620.68932245 -729.2199707 576.4185791 C-728.91694737 574.06362645 -728.62775013 571.70718254 -728.33929443 569.35040283 C-718.48991533 489.7786895 -694.49517434 413.01588326 -589.36517334 241.97686768 C-587.35294049 239.54093422 -585.36826772 237.08281011 -583.37884521 234.62823486 C-568.63952178 216.65874662 -568.63952178 216.65874662 -561.60906982 209.92193604 C-559.98069347 208.29260616 -558.50495536 206.60284764 -557.01947021 204.84307861 C-552.31757961 199.43624482 -547.24531727 194.40741621 -542.17156982 189.35308838 C-540.50708244 187.69396166 -538.84801075 186.02955435 -537.18939209 184.36456299 C-531.61105724 178.78273663 -525.94679493 173.37731175 -519.94134521 168.25323486 C-518.16564301 166.6335567 -516.39426214 165.00911768 -514.62884521 163.37823486 C-510.21781348 159.35942893 -505.70399164 155.52458163 -501.05853271 151.78057861 C-498.72896579 149.9027557 -496.42877125 147.99299369 -494.13665771 146.06964111 C-471.83725328 127.40393944 -447.98382751 110.25860113 -422.95111084 95.44854736 C-421.04694333 94.31603958 -419.15629222 93.1643561 -417.26947021 92.00323486 C-407.2907327 85.88394085 -397.0390521 80.28300021 -386.72601318 74.74981689 C-384.10656822 73.34203173 -381.49452472 71.92127697 -378.88275146 70.49932861 C-307.62574014 32.05602433 -227.31514182 9.75496969 -147.14453125 0.51037598 C-145.05912696 0.26698156 -142.97557023 0.01153629 -140.89202881 -0.24725342 C-95.19551069 -5.72494438 -45.67096958 -5.67263829 0 0 Z " fill="#060F09" transform="translate(1071.9413452148438,354.74676513671875)"/>
<path d="M0 0 C2.37232769 3.55849154 2.37603694 5.46734171 2.61230469 9.7043457 C2.64976177 10.3681918 2.68721886 11.03203791 2.725811 11.71600056 C3.10905633 19.05016225 3.18130819 26.38752563 3.203125 33.73046875 C3.21018824 35.20276929 3.21732093 36.67506949 3.22451782 38.14736938 C3.24404781 42.82741803 3.24920997 47.50741442 3.25 52.1875 C3.25044186 53.38421137 3.25044186 53.38421137 3.25089264 54.60509872 C3.25225502 77.43783762 3.21420555 100.15444136 0.27862549 122.83465576 C-0.02439785 125.18960841 -0.31359509 127.54605233 -0.60205078 129.90283203 C-10.45142989 209.47454536 -34.44617087 286.2373516 -139.57617188 457.27636719 C-141.58840473 459.71230065 -143.5730775 462.17042475 -145.5625 464.625 C-160.30182343 482.59448824 -160.30182343 482.59448824 -167.33227539 489.33129883 C-168.96065175 490.96062871 -170.43638985 492.65038722 -171.921875 494.41015625 C-176.62376561 499.81699004 -181.69602794 504.84581865 -186.76977539 509.90014648 C-188.43426277 511.5592732 -190.09333447 513.22368051 -191.75195312 514.88867188 C-197.33028797 520.47049823 -202.99455028 525.87592311 -209 531 C-210.77570221 532.61967817 -212.54708307 534.24411718 -214.3125 535.875 C-218.72353173 539.89380593 -223.23735358 543.72865324 -227.8828125 547.47265625 C-230.21237942 549.35047916 -232.51257397 551.26024117 -234.8046875 553.18359375 C-257.10409194 571.84929542 -280.9575177 588.99463373 -305.99023438 603.8046875 C-307.89440188 604.93719529 -309.785053 606.08887877 -311.671875 607.25 C-321.65061251 613.36929401 -331.90229312 618.97023465 -342.21533203 624.50341797 C-344.83477699 625.91120313 -347.4468205 627.33195789 -350.05859375 628.75390625 C-417.37051143 665.06882439 -493.78024115 687.74279764 -637.23046875 702.203125 C-638.74534122 702.21001995 -640.26021345 702.21696918 -641.77508545 702.22396851 C-646.57922622 702.24296398 -651.38332645 702.24762228 -656.1875 702.25 C-657.00092487 702.25088371 -657.81434975 702.25176743 -658.65242386 702.25267792 C-697.70560267 702.29039107 -697.70560267 702.29039107 -716.9375 700.625 C-717.68599213 700.56187622 -718.43448425 700.49875244 -719.20565796 700.43371582 C-730.56459825 699.43540175 -730.56459825 699.43540175 -733 697 C-728.43248875 697.26571939 -723.86502787 697.53228503 -719.29760742 697.79956055 C-717.75107079 697.88994983 -716.20452173 697.98012688 -714.65795898 698.07006836 C-712.40605237 698.20106975 -710.15419843 698.33295298 -707.90234375 698.46484375 C-707.14328735 698.50868698 -706.38423096 698.55253021 -705.60217285 698.59770203 C-702.21196315 698.79638474 -698.82726565 699.01352154 -695.44140625 699.27856445 C-683.01617 700.24620438 -670.58246135 700.28584277 -658.125 700.3125 C-656.29884155 700.31692612 -656.29884155 700.31692612 -654.43579102 700.32144165 C-636.72032602 700.3311104 -619.15129406 699.69846142 -601.5 698.1875 C-600.04258392 698.06334213 -600.04258392 698.06334213 -598.5557251 697.93667603 C-576.09313799 695.9765076 -553.87962401 693.08345699 -531.75 688.75 C-530.22394135 688.45403931 -530.22394135 688.45403931 -528.66705322 688.15209961 C-502.25316257 683.01765671 -476.58614288 676.37145536 -451 668 C-449.81825195 667.61473145 -448.63650391 667.22946289 -447.41894531 666.83251953 C-387.27947616 647.06864526 -326.34731329 619.06795008 -275.53515625 580.8984375 C-273.11516911 579.08624374 -270.65562327 577.33985414 -268.18139648 575.6027832 C-255.28546581 566.52345584 -242.88724744 556.77649435 -230.9296875 546.49609375 C-228.22306267 544.19004939 -225.4682426 541.96551747 -222.6875 539.75 C-215.8283436 534.16511358 -209.4800241 528.04041872 -203.06835938 521.95507812 C-200.37352151 519.4078329 -197.65657565 516.8849207 -194.93847656 514.36254883 C-187.34145257 507.30803272 -179.86571209 500.26077792 -173.10546875 492.38671875 C-170.89410966 489.87996475 -168.62034782 487.44259874 -166.33227539 485.00610352 C-161.08051296 479.41188381 -156.02506151 473.74766775 -151.2265625 467.75390625 C-149.23322386 465.28846108 -147.19045019 462.87471717 -145.12207031 460.47216797 C-138.05897334 452.25032093 -131.4784228 443.68715048 -125 435 C-124.47148438 434.29246582 -123.94296875 433.58493164 -123.3984375 432.85595703 C-85.78088678 382.25525535 -56.21542358 325.83242908 -35.22265625 266.44921875 C-34.08176077 263.23065419 -32.91931227 260.02082654 -31.75 256.8125 C-27.31146413 244.51309164 -23.78635824 232.13250313 -20.62744141 219.44873047 C-19.81379264 216.27328412 -18.88315932 213.13838333 -17.9375 210 C-8.80869276 178.16141411 -3.74718333 144.3664772 -1.33276367 111.37084961 C-1.08594109 108.01142768 -0.79262618 104.65777568 -0.48950195 101.30297852 C0.8501736 86.02001685 1.28376346 70.86022969 1.20581055 55.52172852 C1.18745868 51.80412933 1.18530276 48.0867807 1.18554688 44.36914062 C1.16316518 29.55649218 0.79427088 14.79150426 0 0 Z " fill="#06100A" transform="translate(1658,947)"/>
<path d="" fill="#50C878" transform="translate(0,0)"/>
<path d="" fill="#50C878" transform="translate(0,0)"/>
<path d="" fill="#50C878" transform="translate(0,0)"/>
<path d="" fill="#50C878" transform="translate(0,0)"/>
</svg>
